<svg xmlns="http://www.w3.org/2000/svg" xmlns:xlink="http://www.w3.org/1999/xlink" width="500" height="500" preserveAspectRatio="xMidYMid meet" version="1.0" viewBox="0 0 375 375" zoomAndPan="magnify"><path fill="#ff924e" fill-opacity="1" fill-rule="nonzero" d="M 221.589844 49.144531 C 221.589844 49.144531 127.992188 262.636719 127.890625 262.597656 C 145.558594 262.546875 163.222656 262.558594 180.890625 262.78125 L 222.542969 169.625 L 263.890625 262.453125 C 281.226562 262.683594 298.566406 262.597656 315.902344 262.597656 C 315.625 262.445312 221.589844 49.144531 221.589844 49.144531 Z M 221.589844 49.144531"/><path fill="#4181a9" fill-opacity="1" fill-rule="nonzero" d="M 153.765625 49.222656 C 153.765625 49.222656 60.167969 262.714844 60.066406 262.675781 C 77.730469 262.625 95.398438 262.636719 113.0625 262.859375 L 154.71875 169.707031 L 196.066406 262.53125 C 213.402344 262.765625 230.742188 262.675781 248.078125 262.675781 C 247.796875 262.523438 153.765625 49.222656 153.765625 49.222656 Z M 153.765625 49.222656"/><g fill="#fff" fill-opacity="1"><g><g><path d="M 12.546875 0 L 3.078125 0 L 6.640625 -41.453125 L 17.03125 -41.453125 L 22.8125 -26.4375 C 23.800781 -23.9375 24.644531 -21.640625 25.34375 -19.546875 C 26.039062 -17.460938 26.488281 -15.988281 26.6875 -15.125 L 27 -13.90625 C 27.65625 -16.601562 29.085938 -20.78125 31.296875 -26.4375 L 37.140625 -41.453125 L 47.546875 -41.453125 L 51.84375 0 L 42.375 0 L 40.84375 -16.046875 L 40.03125 -28.171875 C 38.96875 -25.085938 37.492188 -21.046875 35.609375 -16.046875 L 29.765625 -0.4375 L 24.171875 -0.4375 L 18.390625 -16.046875 C 17.441406 -18.585938 16.640625 -20.863281 15.984375 -22.875 C 15.328125 -24.882812 14.898438 -26.28125 14.703125 -27.0625 L 14.390625 -28.171875 C 14.390625 -25.253906 14.207031 -21.210938 13.84375 -16.046875 Z M 12.546875 0" transform="translate(9.748576, 310.64998)"/></g></g></g><g fill="#fff" fill-opacity="1"><g><g><path d="M 16.546875 -17.59375 L 16.109375 -16.109375 L 26.078125 -16.109375 L 25.640625 -17.59375 C 24.453125 -21.601562 23.476562 -25.023438 22.71875 -27.859375 C 21.96875 -30.691406 21.507812 -32.515625 21.34375 -33.328125 L 21.09375 -34.5625 C 20.769531 -32.3125 19.253906 -26.65625 16.546875 -17.59375 Z M 11.3125 0 L 1.421875 0 L 15.25 -41.453125 L 27.1875 -41.453125 L 41.015625 0 L 30.875 0 L 28.34375 -8.484375 L 13.84375 -8.484375 Z M 11.3125 0" transform="translate(62.946084, 310.64998)"/></g></g></g><g fill="#fff" fill-opacity="1"><g><g><path d="M 13.09375 0 L 1.65625 0 L 14.765625 -21.03125 L 2.28125 -41.453125 L 13.28125 -41.453125 L 20.171875 -29.328125 L 26.75 -41.453125 L 38.3125 -41.453125 L 25.765625 -20.96875 L 39.109375 0 L 27.859375 0 L 20.359375 -12.921875 Z M 13.09375 0" transform="translate(103.659096, 310.64998)"/></g></g></g><g fill="#fff" fill-opacity="1"><g><g><path d="M 37.390625 -16.046875 C 37.390625 -10.640625 35.875 -6.507812 32.84375 -3.65625 C 29.8125 -0.8125 25.710938 0.609375 20.546875 0.609375 C 15.460938 0.609375 11.378906 -0.800781 8.296875 -3.625 C 5.222656 -6.457031 3.6875 -10.457031 3.6875 -15.625 L 3.6875 -41.453125 L 13.15625 -41.453125 L 13.15625 -15.6875 C 13.15625 -10.5625 15.613281 -8 20.53125 -8 C 25.457031 -8 27.921875 -10.660156 27.921875 -15.984375 L 27.921875 -41.453125 L 37.390625 -41.453125 Z M 37.390625 -16.046875" transform="translate(142.711598, 310.64998)"/></g></g></g><g fill="#fff" fill-opacity="1"><g><g><path d="M 12.546875 0 L 3.078125 0 L 6.640625 -41.453125 L 17.03125 -41.453125 L 22.8125 -26.4375 C 23.800781 -23.9375 24.644531 -21.640625 25.34375 -19.546875 C 26.039062 -17.460938 26.488281 -15.988281 26.6875 -15.125 L 27 -13.90625 C 27.65625 -16.601562 29.085938 -20.78125 31.296875 -26.4375 L 37.140625 -41.453125 L 47.546875 -41.453125 L 51.84375 0 L 42.375 0 L 40.84375 -16.046875 L 40.03125 -28.171875 C 38.96875 -25.085938 37.492188 -21.046875 35.609375 -16.046875 L 29.765625 -0.4375 L 24.171875 -0.4375 L 18.390625 -16.046875 C 17.441406 -18.585938 16.640625 -20.863281 15.984375 -22.875 C 15.328125 -24.882812 14.898438 -26.28125 14.703125 -27.0625 L 14.390625 -28.171875 C 14.390625 -25.253906 14.207031 -21.210938 13.84375 -16.046875 Z M 12.546875 0" transform="translate(182.071604, 310.64998)"/></g></g></g><g fill="#fff" fill-opacity="1"><g><g><path d="M 34.625 -1.84375 C 32.125 -0.289062 28.515625 0.484375 23.796875 0.484375 C 17.734375 0.484375 12.660156 -1.46875 8.578125 -5.375 C 4.492188 -9.289062 2.453125 -14.367188 2.453125 -20.609375 C 2.453125 -26.921875 4.429688 -32.0625 8.390625 -36.03125 C 12.347656 -40.007812 17.503906 -42 23.859375 -42 C 28.535156 -42 32.125 -41.222656 34.625 -39.671875 L 34.625 -30.5625 C 31.550781 -32.445312 28.128906 -33.390625 24.359375 -33.390625 C 21.035156 -33.390625 18.242188 -32.226562 15.984375 -29.90625 C 13.734375 -27.59375 12.609375 -24.492188 12.609375 -20.609375 C 12.609375 -16.796875 13.734375 -13.769531 15.984375 -11.53125 C 18.242188 -9.289062 21.15625 -8.171875 24.71875 -8.171875 C 28.570312 -8.171875 31.875 -9.15625 34.625 -11.125 Z M 34.625 -1.84375" transform="translate(248.922113, 310.64998)"/></g></g></g><g fill="#fff" fill-opacity="1"><g><g><path d="M 13.46875 0 L 4 0 L 4 -41.453125 L 14.390625 -41.453125 L 24.046875 -24.296875 C 25.398438 -21.867188 26.578125 -19.597656 27.578125 -17.484375 C 28.585938 -15.378906 29.234375 -13.894531 29.515625 -13.03125 L 30.015625 -11.6875 C 29.597656 -14.71875 29.390625 -18.921875 29.390625 -24.296875 L 29.390625 -41.453125 L 38.875 -41.453125 L 38.875 0 L 28.46875 0 L 18.578125 -17.15625 C 17.265625 -19.375 16.101562 -21.554688 15.09375 -23.703125 C 14.09375 -25.859375 13.40625 -27.445312 13.03125 -28.46875 L 12.546875 -30.015625 C 13.160156 -26.328125 13.46875 -22.039062 13.46875 -17.15625 Z M 13.46875 0" transform="translate(284.899612, 310.64998)"/></g></g></g><g fill="#fff" fill-opacity="1"><g><g><path d="M 34.625 -1.84375 C 32.125 -0.289062 28.515625 0.484375 23.796875 0.484375 C 17.734375 0.484375 12.660156 -1.46875 8.578125 -5.375 C 4.492188 -9.289062 2.453125 -14.367188 2.453125 -20.609375 C 2.453125 -26.921875 4.429688 -32.0625 8.390625 -36.03125 C 12.347656 -40.007812 17.503906 -42 23.859375 -42 C 28.535156 -42 32.125 -41.222656 34.625 -39.671875 L 34.625 -30.5625 C 31.550781 -32.445312 28.128906 -33.390625 24.359375 -33.390625 C 21.035156 -33.390625 18.242188 -32.226562 15.984375 -29.90625 C 13.734375 -27.59375 12.609375 -24.492188 12.609375 -20.609375 C 12.609375 -16.796875 13.734375 -13.769531 15.984375 -11.53125 C 18.242188 -9.289062 21.15625 -8.171875 24.71875 -8.171875 C 28.570312 -8.171875 31.875 -9.15625 34.625 -11.125 Z M 34.625 -1.84375" transform="translate(326.04311, 310.64998)"/></g></g></g></svg>